<svg xmlns="http://www.w3.org/2000/svg" viewBox="0 0 317.42 317.42"><defs><style>.cls-1{fill:#2e4e94;}.cls-2{fill:#fff;}</style></defs><title>Fichier 1</title><g id="Calque_2" data-name="Calque 2"><g id="Mode_Isolation" data-name="Mode Isolation"><circle class="cls-1" cx="158.71" cy="158.71" r="158.71"/><path class="cls-2" d="M69.71,208a1.44,1.44,0,0,0-1.71.13.68.68,0,0,0-.19,1.14,1.38,1.38,0,0,1,.38,1.08,3.21,3.21,0,0,0,.06.76c.13.26,0,.45-.06.64a5.1,5.1,0,0,1-2.6,2.53c-1.78.77-5.21-.31-6.73-1.2a16.05,16.05,0,0,1-2.66-2.41c-.26-.19-.13-.45,0-.64A47.93,47.93,0,0,0,58,205a30.2,30.2,0,0,0,1.71-9.52,11.31,11.31,0,0,1,.44-3.29,5.84,5.84,0,0,0,.45-2.54c0-.13.06-.19.06-.32a1,1,0,0,1,.76-.89,16.35,16.35,0,0,0,3.37-2.22.67.67,0,0,0,.38-.44c.63-1.27,1.39-2.54,1.9-3.87a26.59,26.59,0,0,0,1.33-4.32,4.18,4.18,0,0,0,.06-2.79c-.06-.06,0-.19,0-.31a2,2,0,0,0-1-1.59,4.53,4.53,0,0,0-1.46-.76,2.88,2.88,0,0,0-2.28.13,6.07,6.07,0,0,1-2.28,1l-.19.13c-.83.7-1.72,1.27-2.48,2a12.7,12.7,0,0,0-2.6,3.93A30.2,30.2,0,0,0,54.17,185c0,.12-.07.19-.07.25-.19.44-.38.51-.75.38a5.56,5.56,0,0,1-1.4-.7,3.23,3.23,0,0,1-1.65-3.87,2.66,2.66,0,0,0,0-.69c-.13-.45-.38-.58-.76-.51a1.32,1.32,0,0,0-.89.63,4.12,4.12,0,0,0-.7,2.86,5.43,5.43,0,0,0,1.27,2.73,3.88,3.88,0,0,0,1.33,1.14,8.64,8.64,0,0,0,2.16.69c.57.07.64.2.51.89-.13,1.14-.51,2.22-.7,3.37-.32,1.45-.57,3-.76,4.44-.38,3.1-.7,6.15-1.33,9.19-.19.7-.19.7-.89.51a4.66,4.66,0,0,0-2.67.07,14.71,14.71,0,0,0-3.48,1.39,2.36,2.36,0,0,0-.58.51,10,10,0,0,0-1.71,3,3.58,3.58,0,0,0,.26,3.3,5.71,5.71,0,0,0,3.93,2.66,4.07,4.07,0,0,0,2,.13c1.07-.25,2.22-.45,3.29-.76a6.72,6.72,0,0,0,3-2.29c.7-.88.77-1.07,1.78-.12a8.7,8.7,0,0,0,3.62,2.15,7.59,7.59,0,0,1,1,.32,9.85,9.85,0,0,0,6.6.13l1.39-.7c1.78-.76,2.73-3.11,2.92-4.76.06-.5,0-1.08.06-1.65A1.9,1.9,0,0,0,69.71,208Zm-8.18-26.2a20.32,20.32,0,0,0,1.14-4.18A5.65,5.65,0,0,1,64.83,174a1,1,0,0,1,1.52.32,3.2,3.2,0,0,1,.38,1.26,11.72,11.72,0,0,1-2,6.09,7.92,7.92,0,0,1-1.77,2.1c-.51.38-.83,1-1.34,1.33l-.31.25c-.19.13-.38.07-.38-.19A11.61,11.61,0,0,1,61.53,181.82ZM49.35,209.93c-.38.82-.76,1.65-1.21,2.47a4.27,4.27,0,0,1-2.47,1.71,1.37,1.37,0,0,1-1.46-.82c-.13-.7-.25-1.33-.32-2,0-.19,0-.38.07-.44.63-.7,1-1.59,2-1.84a4.46,4.46,0,0,1,2.73-.13l.51.26A.49.49,0,0,1,49.35,209.93Z"/><path class="cls-2" d="M95.14,194.26A14.89,14.89,0,0,0,94.07,196,9.18,9.18,0,0,1,93,197.05c-.19.19-.51.13-.7.38-.44.76-.76.95-1.21,1.78-.06.12-.12.31-.25.38-.44.19-2.41,4.12-2.6,4.5a9.93,9.93,0,0,0-.83,1.33v.07a5.73,5.73,0,0,1-.63,1c-1.2,1.78-3.81,7.8-6.15,6a5.86,5.86,0,0,1-1.91-3.24,18.21,18.21,0,0,0-.57-2.09c-.69-1.84-.89-3.81-1.46-5.71a.42.42,0,0,1-.06-.26,4.1,4.1,0,0,0-.32-2.34v-.26a14.44,14.44,0,0,0,.19-2.41.73.73,0,0,1,.57-.7,3.49,3.49,0,0,0,1-.31c1.07-.45,2-1.15,3-1.59a4.32,4.32,0,0,0,1.58-1.27l.64-.7a3.64,3.64,0,0,0-.19-5.77c-.38-.32-.83-.57-1.27-.89a.72.72,0,0,0-.51-.06,3.52,3.52,0,0,1-1.08-.25,6.24,6.24,0,0,0-3.87.12,4.79,4.79,0,0,0-2.15,1.91c-2.73,4.12-3.37,9.64-3.56,14.52a39.91,39.91,0,0,0,.32,4.76,7.92,7.92,0,0,0,.51,2.16q.77,2,1.71,4A6.82,6.82,0,0,0,78,215.89a6.19,6.19,0,0,0,3.24.38c1.08-.19,2-.06,2.92-.76,1.33-1.08,2.22-1.21,3.8-4.63l.64-1.27c.57-1,1-2.22,1.58-3.11s2.16-4.95,2.6-5.83l.51-.83c.7-1.2.7-1.39,1.14-2.16s.26-1.39.83-2.22a2.42,2.42,0,0,0,.19-.44c.12-.19.32-.76.19-.89A.28.28,0,0,0,95.14,194.26ZM77.7,188.74a1.64,1.64,0,0,0,.19-.76.89.89,0,0,1,.63-.89,3.51,3.51,0,0,1,2.54.25.48.48,0,0,1,.25.7l-.5.7a18.66,18.66,0,0,1-3.17,3.11,1.15,1.15,0,0,1-.83.32A14.77,14.77,0,0,1,77.7,188.74Z"/><path class="cls-2" d="M142.26,224.08c-.47-.24-.82.12-1.18.35-.11.12-.23.12-.23.24a24.34,24.34,0,0,0-2.48,4.59c-1.29,3.54-3.53,6.83-5.53,10.25a2.59,2.59,0,0,1-.83.71c-.23.23-.59.35-.82.7a6,6,0,0,1-2.83,1.89,2.12,2.12,0,0,1-2.47-.12,4,4,0,0,1-1.3-1.18,11.94,11.94,0,0,1-2.24-5.3,14.62,14.62,0,0,0-1.17-4.59,11.07,11.07,0,0,1-1-4.24c-.12-2.36-.35-4.72-.35-7.07-.12-4-.47-8-.47-12.13a83.14,83.14,0,0,1,.7-9.31,62.28,62.28,0,0,1,1.42-6.71,32,32,0,0,1,2.47-8,14.63,14.63,0,0,0,1.77-4.24,10.16,10.16,0,0,1,2.71-4.59,1.57,1.57,0,0,1,2.24-.35,4.1,4.1,0,0,1,1.64,2.59,14.57,14.57,0,0,0,.48,3.18,17.24,17.24,0,0,1-.36,8.13,2.37,2.37,0,0,0-.12,1.29,2.08,2.08,0,0,0,1.3,1.89,2.23,2.23,0,0,0,2.24-.95,4.3,4.3,0,0,0,.47-1.06,5.29,5.29,0,0,0,.47-2.35c.24-2.12.36-4.24.71-6.36a10.19,10.19,0,0,0-.35-4.24,8,8,0,0,1-.36-1.42,12.92,12.92,0,0,0-1.29-3.18,5.24,5.24,0,0,0-1.06-1.29,34.4,34.4,0,0,0-3.66-1.77,12.76,12.76,0,0,0-8.83,1.06,3.41,3.41,0,0,1-1.53.59,3.26,3.26,0,0,0-3.06,1.29,29.67,29.67,0,0,0-6.48,10.72c-.83,2.24-1.3,4.36-2,6.48-1.65,5.07-2,10-2.23,15.2a72.5,72.5,0,0,0,.11,8.72c.24,3.18.24,6.36.59,9.66a97.14,97.14,0,0,0,2.12,11.3,23.49,23.49,0,0,0,2.95,6.6,13.86,13.86,0,0,0,4.83,5c4.47,2.94,8.83,2.83,13.66.24,1-.48,1.53-1.18,2.36-1.65a13.82,13.82,0,0,0,5.54-7.43,39.84,39.84,0,0,0,2.47-7.18,17.4,17.4,0,0,1,1.41-4.36c0-.23.12-.35.12-.59C142.85,224.55,142.73,224.2,142.26,224.08Z"/><path class="cls-2" d="M275,211.89l-.41.09c-.5,0-1.91.47-2.9.66a23.09,23.09,0,0,1-5,.56,11.2,11.2,0,0,0-8.2-1.42,3.75,3.75,0,0,0-1.9,5.61c3.8,6.2,3.56,13.28,2.08,16.66a3.71,3.71,0,0,1-1.06,1.29l-2.47,2.48a3.82,3.82,0,0,1-2.48.94c-1.29.24-2.12-.59-3.18-1.06a3.33,3.33,0,0,1-2-2.36l-.24-.94c-.23-.7-.23-1.65-.82-2.24A6.45,6.45,0,0,1,245,229a61.8,61.8,0,0,1-1.18-6.95,26.48,26.48,0,0,1-.59-5.3,17.57,17.57,0,0,0-.47-5.53,11.39,11.39,0,0,1-.35-4,12.73,12.73,0,0,0,.23-2.12,6.58,6.58,0,0,1-.12-1.53h.12V201.3l.23-1.41a2.11,2.11,0,0,1,1.18-1.06l.36-.24a32.1,32.1,0,0,0,7.65-6.12c1.53-1.65,2.83-3.54,4.36-5.19a4.88,4.88,0,0,0,1.06-1.88,4.11,4.11,0,0,1,.71-1.42c1.18-2,2.71-3.76,2.94-6.24,0-.12.12-.24.24-.47a28,28,0,0,0,2.12-6.24c.59-2.12.24-4.36.24-6.48a9.89,9.89,0,0,0-2-5.54c-2.23-2.71-5.41-3.77-8.95-3.77a.7.7,0,0,0-.47.12,15.38,15.38,0,0,0-5.42,3.53,43.73,43.73,0,0,0-8.36,12.84c-.71,2-1.77,3.77-2.36,5.77-.94,3.3-1.65,6.72-2.47,10.14-2.12,9-2.24,20-1.42,29.21,0,.22.08.43.11.64a14,14,0,0,0-1.17,1.83,1.26,1.26,0,0,1-.47.59c-.71.35-1.88,2.82-2.36,3.41-1.06,1.41-1.64,3.06-2.59,4.59-2,2.72-7.65,11.08-7.77,2.6,0-1.18.12-2.48,0-3.77a37.49,37.49,0,0,1,.12-5.19,6.6,6.6,0,0,1,.11-2.12c.36-2.12.47-4.12.71-6.12.35-3.06.24-6.25.71-9.31a5.08,5.08,0,0,0-.59-3.41,10.36,10.36,0,0,0-2.59-3,4.09,4.09,0,0,0-2.6-1.18l-2.35-.23c-1.53-.24-2,.12-2.59,1.53-1.53,3.06-1.77,6.36-2.24,9.66a78.53,78.53,0,0,1-5.42,20c-.59,1.65-6.36,13.55-9.07,9.9-1.3-1.77-.59-5.42-.47-7.54a34.64,34.64,0,0,0,0-3.53c-.12-1.3,0-2.59,0-3.89s.35-2.71.35-4c0-.35-.12-.82,0-1.06a10.94,10.94,0,0,0,.36-4.36c.11-2.47.47-4.94.58-7.42a19.59,19.59,0,0,0,.12-4.59,6.57,6.57,0,0,0-3.53-5.3,8.69,8.69,0,0,0-3.89-1.06c-1.3-.12-2.24.82-3.3,1.53-.82.47-.59,1.3-.82,1.89l-.24.82c-.59,2.59-1.53,5.06-1.88,7.77-.36,3.18-.94,6.25-1.06,9.43,0,.45-.05.93-.07,1.41a12.92,12.92,0,0,1-.76,1.23c-.94,1.41-1.41,2.47-2.47,3.89-.83,1.18-4.6,6.71-7.31,10.48-1.88,1.89-6,6.48-7.89,6.83a1.63,1.63,0,0,1-1.65-.35,5.38,5.38,0,0,1-.7-1.06,10.57,10.57,0,0,1-1-4.24c0-.35-.12-.59-.12-.94-.23-1.42-.35-2.83-.47-4.24s.12-2.6-.11-3.77c0-.59-.24-1.06-.12-1.53a34.19,34.19,0,0,0,.23-4.95,11.79,11.79,0,0,1,1.42-5.19c.47-.94,1.18-1.65,1.65-2.59,1.06-2,2-4,2.94-6.12,1.53-3.42,3.18-6.83,4.36-10.37l.94-2.47a84.38,84.38,0,0,0,3.42-10.6c.47-2.24.94-4.36,1.29-6.6s.48-4.36.83-6.6l-.24-1.65a14.16,14.16,0,0,0-.59-3.3,4.93,4.93,0,0,0-1.88-2.7,13.71,13.71,0,0,0-3.42-1.89,1,1,0,0,0-.82,0l-.94.24a7.27,7.27,0,0,0-3.77,1.06,1.79,1.79,0,0,1-.71.23,5.21,5.21,0,0,0-2.71,2,17.47,17.47,0,0,0-3.65,6,98.14,98.14,0,0,0-5.42,14.84c-.82,3.18-1.53,6.37-2.12,9.66a17.62,17.62,0,0,0-.35,2.48c-.12,2.71-.47,5.3-.83,8-.35,3.18-.71,6.36-.82,9.54a94.83,94.83,0,0,0,1.18,18.38,31.72,31.72,0,0,0,2.59,7.3,34.11,34.11,0,0,0,2.24,3.53,4.52,4.52,0,0,0,1.88,1.77l2.36,1.18c1.17.59,2.12,2,3.53,1.53.12,0,.24.12.35.12a3.74,3.74,0,0,0,2.71-.59l1.42-.83a24,24,0,0,0,4.71-3.77,23,23,0,0,0,2.82-3.06c1.18-1.41,2.36-3.65,3.66-5a.43.43,0,0,1,.11-.23l.36-.35a10.64,10.64,0,0,0,1.53-2.48,6.54,6.54,0,0,0,.94-1.53,2.51,2.51,0,0,0,.59-.94l1-1.53c.88,8.46,4,17.18,12.55,18.32a9.36,9.36,0,0,0,5.06-.7c2.24-.95,3.42-2.83,4.72-4.6a42.79,42.79,0,0,0,4-8c.12-.35.12-.82.71-.82,2.24,4,3.3,8.6,7.77,10.84,3.65,1.64,7,.46,9.9-1.77,2.71-2.24,3.65-4.36,5.42-7.07,1.18-1.88,1.65-2.95,2.82-4.83a22,22,0,0,0,1.75-3.49,11,11,0,0,0,.5,2,7.07,7.07,0,0,1,.47,1.41c.23,2.24,1.41,4.36,2.23,6.48a17.87,17.87,0,0,0,4,6.12c1.89,1.89,3.89,3.3,6.6,3.54a4.34,4.34,0,0,1,1.29.35,9.12,9.12,0,0,0,6.36.24c.24,0,.59-.12.83-.12a6.6,6.6,0,0,0,2.12-.83c1.41-.82,2.47-2.12,3.89-3.06a6.53,6.53,0,0,0,2-2.35,7.24,7.24,0,0,1,.71-1.42c1.76-3.17,3.57-9.66.11-17.85l1.83-.14s4.73-.71,5.72-1.06a38.08,38.08,0,0,0,3.73-.85C277.44,216.15,276.4,211.6,275,211.89Zm-30.71-23c.59-2.35.82-4.71,1.53-7l.35-1.06c1.06-2.24,1.3-4.71,1.89-6.95a27.28,27.28,0,0,1,1.41-3.3,46.66,46.66,0,0,1,2-5.65l.95-1.53a12.79,12.79,0,0,0,2.24-2.71,2.65,2.65,0,0,1,1.88-1.18,1.07,1.07,0,0,1,1.3.71,10.93,10.93,0,0,1,.35,3.29,8.78,8.78,0,0,0-.12,1.77,24,24,0,0,1-1.76,9.43,10.73,10.73,0,0,0-.83,2.35,40.07,40.07,0,0,1-4.59,8.13,60.69,60.69,0,0,1-6.48,6.83.67.67,0,0,1-.71.24A17,17,0,0,1,244.28,188.93Zm-87.41,13.83a27,27,0,0,0,.82-5.42l1.06-6.6c.36-2.47,1.3-4.83,1.53-7.3.12-1.77.95-3.3,1.18-5.07a21.23,21.23,0,0,0,.59-2.94,16.62,16.62,0,0,1,.83-3.3c.58-2,1.17-3.89,1.88-5.89a9.5,9.5,0,0,1,1.42-2.36,1.16,1.16,0,0,1,2,0,2.49,2.49,0,0,1,.7,2v.82a4.3,4.3,0,0,1-.23,2.71c-.12.59,0,1.3-.12,1.89a16.1,16.1,0,0,0-.35,3.29,2,2,0,0,1-.12.83,20.42,20.42,0,0,0-.94,3.65c-.83,2.36-.83,4.71-1.77,6.95l-3.06,8.25c-.83,2.12-1.77,4.24-2.71,6.36a16.82,16.82,0,0,1-1.77,3.18c0,.12-.12.12-.12.23s-.35.36-.59.24-.23-.24-.23-.47Z"/><path class="cls-2" d="M147.71,53a14,14,0,0,1,11.53,6.13A13,13,0,0,1,179.62,75h19.09a5.05,5.05,0,0,1,5,5V94a5.05,5.05,0,0,1-5,5h-2v39a5.05,5.05,0,0,1-5,5h-66a5.05,5.05,0,0,1-5-5V99h-2a5.05,5.05,0,0,1-5-5V80a5.05,5.05,0,0,1,5-5h17.56a13.88,13.88,0,0,1-2.56-8,14.05,14.05,0,0,1,14-14Zm0,6a8,8,0,0,0,0,16h8V67A8,8,0,0,0,147.71,59Zm21,2a7,7,0,0,0-7,7v7h7a7,7,0,1,0,0-14Zm29,20h-28V93h28Zm-34,0h-10V93h10Zm-16,0h-28V93h28Zm43,18h-21v38h21Zm-27,0h-10v38h10Zm-16,0h-21v38h21Z"/></g></g></svg>