<svg 
 xmlns="http://www.w3.org/2000/svg"
 xmlns:xlink="http://www.w3.org/1999/xlink"
 width="62px" height="80px">
<path fill-rule="evenodd"  fill="rgb(68, 91, 156)"
 d="M12.471,53.304 C12.346,53.335 12.221,53.382 12.096,53.429 C11.582,53.600 11.146,53.975 10.912,54.474 C10.678,54.973 10.647,55.535 10.849,56.050 C12.003,59.591 14.013,62.540 16.585,64.911 C21.977,69.872 29.816,71.932 37.281,69.529 C37.795,69.373 38.232,68.998 38.481,68.531 C38.731,68.047 38.777,67.486 38.606,66.970 C38.450,66.456 38.076,66.019 37.593,65.769 C37.109,65.535 36.548,65.489 36.035,65.660 C29.956,67.610 23.566,66.066 19.203,62.040 C17.130,60.121 15.524,57.688 14.590,54.802 C14.356,53.850 13.452,53.210 12.471,53.304 L12.471,53.304 ZM29.925,0.009 C29.224,0.227 28.709,0.789 28.554,1.507 C26.387,8.434 24.345,11.601 21.198,15.111 C18.065,18.606 13.732,22.397 7.608,29.838 C7.577,29.885 7.639,29.932 7.608,29.963 C3.135,35.252 0.252,42.085 0.252,49.558 C0.252,66.361 13.982,80.012 30.798,80.012 C47.613,80.012 61.343,66.361 61.343,49.558 C61.343,43.864 59.598,38.637 56.854,34.082 C56.808,33.863 56.731,33.645 56.606,33.458 L56.606,33.333 L56.481,33.333 L56.481,33.208 L56.356,33.083 L56.231,33.083 L56.231,32.959 L56.107,32.959 L56.107,32.834 L55.982,32.834 C55.390,32.443 54.626,32.397 53.987,32.709 L53.862,32.709 C53.473,32.927 53.161,33.286 52.990,33.707 L52.865,33.832 L31.171,54.800 L22.818,45.939 C22.475,45.486 21.945,45.205 21.384,45.174 C20.823,45.127 20.262,45.330 19.857,45.720 C19.451,46.110 19.233,46.656 19.249,47.218 C19.264,47.779 19.514,48.326 19.950,48.684 L29.675,59.044 C30.407,59.808 31.623,59.871 32.418,59.168 L54.486,37.826 C56.278,41.352 57.353,45.315 57.353,49.558 C57.353,64.192 45.462,76.018 30.797,76.018 C16.132,76.018 4.241,64.192 4.241,49.558 C4.241,43.021 6.657,37.092 10.600,32.459 L10.724,32.459 C16.740,25.142 20.807,21.523 24.190,17.732 C26.839,14.767 28.896,11.195 30.798,6.499 C32.605,10.446 34.304,14.315 36.532,16.858 C39.571,20.322 43.031,23.317 47.878,28.840 C48.206,29.293 48.720,29.573 49.265,29.636 C49.826,29.698 50.371,29.527 50.793,29.152 C51.213,28.793 51.463,28.262 51.479,27.701 C51.494,27.140 51.275,26.609 50.871,26.219 C45.884,20.525 42.315,17.280 39.525,14.113 C36.735,10.946 34.678,7.763 32.418,1.382 C32.154,0.571 31.405,0.025 30.548,0.009 C30.423,-0.007 30.299,-0.007 30.174,0.009 L29.925,0.009 L29.925,0.009 Z"/>
</svg>