<svg 
 xmlns="http://www.w3.org/2000/svg"
 xmlns:xlink="http://www.w3.org/1999/xlink"
 width="82px" height="80px">
<path fill-rule="evenodd"  fill="rgb(68, 91, 156)"
 d="M79.827,54.288 L70.632,38.380 L76.763,41.796 C77.574,42.245 78.659,41.975 79.109,41.168 C79.560,40.360 79.289,39.278 78.478,38.829 L67.300,32.629 C66.940,32.358 66.577,32.179 66.127,32.179 C65.767,32.179 65.497,32.271 65.225,32.358 C64.682,32.629 64.415,33.166 64.415,33.798 L64.324,47.280 C64.324,48.179 65.046,48.987 66.036,48.987 C66.937,48.987 67.747,48.267 67.747,47.280 L67.838,39.911 L77.035,55.911 C78.747,58.877 78.659,62.294 77.035,65.257 C75.411,68.223 72.255,69.930 68.920,69.930 L48.991,69.838 C48.089,69.838 47.280,70.558 47.280,71.544 C47.280,72.443 48.001,73.251 48.991,73.251 L68.920,73.342 L69.011,73.342 C73.612,73.342 77.757,71.004 80.011,67.051 C82.082,63.006 82.082,58.245 79.827,54.288 L79.827,54.288 ZM49.171,8.090 L59.089,25.347 C59.539,26.154 60.621,26.425 61.434,25.975 C62.245,25.526 62.516,24.448 62.065,23.637 L52.146,6.381 C49.801,2.427 45.656,0.001 41.055,0.001 C36.456,0.001 32.310,2.339 29.964,6.292 L20.768,22.201 L20.677,15.280 C20.677,14.382 19.866,13.574 18.965,13.574 C18.063,13.574 17.253,14.382 17.253,15.280 L17.432,28.043 C17.341,28.492 17.432,28.942 17.612,29.300 C17.792,29.570 17.971,29.841 18.243,30.020 C18.514,30.199 18.785,30.199 19.053,30.199 C19.324,30.199 19.595,30.107 19.863,30.020 L31.584,23.370 C32.394,22.920 32.666,21.843 32.215,21.031 C31.764,20.224 30.683,19.954 29.869,20.403 L23.466,24.089 L32.940,7.999 C34.652,5.123 37.629,3.326 41.056,3.326 C44.483,3.417 47.459,5.215 49.171,8.090 L49.171,8.090 ZM38.801,70.017 L27.080,63.185 C26.270,62.735 25.276,63.006 24.734,63.813 C24.283,64.621 24.554,65.702 25.364,66.152 L31.768,69.926 L13.284,69.835 C9.948,69.835 6.880,68.037 5.169,65.161 C3.457,62.286 3.457,58.779 5.169,55.816 L15.179,38.646 C15.630,37.839 15.359,36.849 14.548,36.308 C13.738,35.859 12.653,36.129 12.202,36.936 L2.376,54.109 C0.030,58.062 0.030,62.826 2.376,66.784 C4.631,70.737 8.779,73.166 13.376,73.166 L31.768,73.258 L25.815,76.853 C25.005,77.303 24.734,78.380 25.185,79.191 C25.544,79.732 26.087,79.999 26.630,79.999 C26.900,79.999 27.260,79.908 27.531,79.729 L38.530,73.166 C38.981,73.076 39.253,72.717 39.523,72.359 C39.703,72.089 39.795,71.731 39.795,71.460 C39.611,70.916 39.344,70.379 38.801,70.017 L38.801,70.017 Z"/>
</svg>