<svg 
 xmlns="http://www.w3.org/2000/svg"
 xmlns:xlink="http://www.w3.org/1999/xlink"
 width="69px" height="71px">
<path fill-rule="evenodd"  fill="rgb(68, 91, 156)"
 d="M61.527,30.333 L44.085,30.333 L39.195,39.353 L28.809,16.719 L21.429,30.333 L7.955,30.333 C7.547,29.614 7.107,28.837 6.754,28.096 C4.200,22.893 3.992,16.296 6.779,11.138 C10.742,3.800 19.624,2.208 26.592,6.227 C30.483,8.472 32.329,11.223 34.738,14.761 C37.148,11.225 38.993,8.472 42.885,6.227 C49.861,2.205 58.743,3.808 62.708,11.149 C65.520,16.355 65.279,23.007 62.649,28.233 L61.527,30.333 ZM66.151,9.298 C61.130,0.002 49.836,-2.282 40.946,2.848 C38.597,4.201 36.499,5.998 34.741,8.070 C32.982,5.998 30.885,4.201 28.536,2.848 C19.653,-2.273 8.357,-0.004 3.339,9.284 C-0.077,15.603 0.137,23.524 3.298,29.895 C8.821,41.264 21.360,55.061 29.950,64.647 C31.585,66.474 33.165,68.287 34.741,70.162 C36.321,68.281 37.905,66.463 39.545,64.634 C46.472,56.907 60.424,41.346 66.139,29.988 C69.351,23.609 69.580,15.644 66.151,9.297 L66.151,9.298 ZM46.407,34.249 L59.129,34.249 C52.606,44.229 42.264,55.764 36.636,62.039 L34.741,64.158 L32.857,62.051 C27.237,55.775 16.891,44.229 10.358,34.245 L23.756,34.245 L28.525,25.452 L38.906,48.078 L46.407,34.249 Z"/>
</svg>