<svg 
 xmlns="http://www.w3.org/2000/svg"
 xmlns:xlink="http://www.w3.org/1999/xlink"
 width="83px" height="80px">
<path fill-rule="evenodd"  fill="rgb(68, 91, 156)"
 d="M77.962,44.125 C74.825,47.593 73.608,52.372 74.703,56.908 C76.246,63.298 74.049,69.880 68.970,74.084 C63.891,78.289 56.985,79.244 50.945,76.574 C46.660,74.680 41.712,75.004 37.713,77.442 C34.929,79.139 31.816,79.987 28.706,79.987 C25.523,79.987 22.342,79.100 19.516,77.327 C13.925,73.823 10.879,67.585 11.565,61.048 C12.052,56.408 10.214,51.830 6.646,48.801 C1.621,44.533 -0.492,37.924 1.132,31.554 C2.756,25.183 7.781,20.374 14.243,19.003 C18.831,18.030 22.641,14.876 24.436,10.566 C26.964,4.494 32.631,0.453 39.226,0.021 C45.820,-0.408 51.972,2.855 55.280,8.544 C57.627,12.582 61.821,15.211 66.497,15.577 C73.085,16.092 78.700,20.203 81.151,26.307 C83.602,32.410 82.380,39.238 77.962,44.125 ZM78.377,27.409 C76.320,22.287 71.792,18.971 66.263,18.539 C60.606,18.096 55.534,14.916 52.694,10.031 C50.087,5.548 45.553,2.952 40.429,2.952 C40.095,2.952 39.760,2.963 39.422,2.985 C33.888,3.348 29.317,6.607 27.195,11.703 C25.025,16.916 20.416,20.731 14.867,21.908 C9.443,23.058 5.392,26.937 4.028,32.284 C2.665,37.630 4.369,42.960 8.586,46.542 C12.901,50.206 15.125,55.744 14.536,61.356 C13.960,66.842 16.417,71.873 21.109,74.814 C25.801,77.756 31.425,77.791 36.153,74.909 C40.990,71.960 46.974,71.568 52.158,73.860 C57.226,76.099 62.797,75.329 67.059,71.801 C71.321,68.273 73.093,62.965 71.798,57.602 C70.473,52.115 71.947,46.334 75.741,42.139 C79.449,38.038 80.434,32.531 78.377,27.409 ZM67.804,45.129 C66.030,47.090 65.340,49.793 65.960,52.359 L67.201,57.497 C68.190,61.593 66.783,65.812 63.527,68.506 C60.271,71.201 55.846,71.813 51.974,70.102 L47.119,67.956 C44.694,66.885 41.896,67.069 39.635,68.447 L35.104,71.208 C33.319,72.296 31.324,72.839 29.331,72.839 C27.292,72.839 25.253,72.271 23.442,71.135 C19.858,68.888 17.906,64.890 18.345,60.701 L18.897,55.445 C19.173,52.821 18.132,50.231 16.115,48.518 L12.075,45.086 C8.854,42.351 7.499,38.115 8.540,34.032 C9.581,29.949 12.801,26.866 16.944,25.988 L22.141,24.886 C24.735,24.336 26.890,22.551 27.906,20.114 L29.939,15.232 C31.558,11.340 35.191,8.750 39.417,8.473 C43.640,8.192 47.587,10.289 49.707,13.936 L52.367,18.510 C53.694,20.794 56.067,22.281 58.712,22.488 L64.008,22.902 C68.231,23.232 71.830,25.868 73.400,29.780 C74.971,33.691 74.189,38.068 71.357,41.199 L67.804,45.129 ZM70.627,30.881 C69.463,27.984 66.901,26.108 63.774,25.863 L58.477,25.450 C54.852,25.166 51.601,23.128 49.781,19.997 L47.121,15.423 C45.646,12.887 43.082,11.419 40.184,11.419 C39.995,11.419 39.805,11.425 39.613,11.437 C36.483,11.643 33.898,13.486 32.698,16.368 L30.665,21.250 C29.274,24.591 26.319,27.037 22.764,27.791 L17.567,28.893 C14.499,29.544 12.207,31.738 11.436,34.762 C10.665,37.786 11.629,40.801 14.015,42.827 L18.054,46.258 C20.820,48.606 22.246,52.156 21.868,55.754 L21.316,61.009 C20.990,64.112 22.381,66.958 25.035,68.621 C27.689,70.285 30.870,70.305 33.544,68.675 L38.074,65.914 C41.173,64.024 45.008,63.772 48.332,65.241 L53.187,67.387 C56.053,68.654 59.205,68.218 61.616,66.223 C64.027,64.227 65.029,61.224 64.297,58.191 L63.056,53.053 C62.207,49.537 63.151,45.832 65.583,43.142 L69.135,39.213 C71.233,36.893 71.790,33.779 70.627,30.881 ZM49.971,56.401 L47.442,56.636 L42.441,42.728 L39.043,57.343 L36.132,57.653 C36.132,57.653 30.584,41.719 29.302,37.974 C27.968,34.079 26.667,32.551 26.667,32.551 C26.667,32.551 28.285,32.401 29.084,32.326 C29.883,32.252 30.799,32.120 31.136,33.189 C31.481,34.280 38.105,52.423 38.105,52.423 C38.105,52.423 39.314,47.227 39.790,45.018 C40.299,42.661 41.247,38.749 40.960,35.927 C40.960,35.927 41.112,35.897 41.884,35.841 C42.948,35.764 43.398,36.015 43.923,37.431 C44.447,38.847 49.356,51.628 49.356,51.628 L52.559,35.988 C52.559,35.988 53.228,31.060 52.575,30.105 L56.509,29.740 C56.509,29.740 55.827,30.429 55.016,34.284 C54.778,35.415 49.971,56.401 49.971,56.401 Z"/>
</svg>