<svg 
 xmlns="http://www.w3.org/2000/svg"
 xmlns:xlink="http://www.w3.org/1999/xlink"
 width="53px" height="84px">
<path fill-rule="evenodd"  fill="rgb(68, 91, 156)"
 d="M45.928,126.752 L6.931,126.752 C4.951,126.752 3.345,125.139 3.345,123.153 L3.345,57.389 C14.449,57.496 20.084,58.988 26.015,60.575 C31.890,62.143 37.973,63.755 49.514,63.869 L49.514,123.147 C49.514,125.133 47.902,126.752 45.929,126.752 L45.928,126.752 ZM6.931,41.450 L45.928,41.450 C47.908,41.450 49.514,43.062 49.514,45.055 L49.514,60.627 C38.409,60.519 32.775,59.027 26.844,57.440 C20.968,55.872 14.885,54.260 3.344,54.145 L3.344,45.055 C3.344,43.062 4.950,41.450 6.930,41.450 L6.931,41.450 ZM10.680,30.918 L42.178,30.918 C42.987,30.918 43.651,31.578 43.651,32.397 L43.651,38.199 L9.207,38.193 L9.207,32.397 C9.207,31.578 9.865,30.918 10.681,30.918 L10.680,30.918 ZM15.840,27.446 C15.840,23.809 17.687,20.464 20.772,18.490 C21.241,18.191 21.525,17.671 21.525,17.118 L21.525,8.162 C21.525,5.445 23.726,3.242 26.426,3.242 C29.133,3.242 31.326,5.451 31.326,8.162 L31.326,17.118 C31.326,17.677 31.611,18.191 32.079,18.490 C35.165,20.464 37.012,23.809 37.012,27.446 C37.012,27.522 37.043,27.592 37.056,27.668 L15.795,27.668 C15.808,27.592 15.839,27.529 15.839,27.446 L15.840,27.446 ZM46.890,38.295 L46.890,32.398 C46.890,29.789 44.778,27.668 42.179,27.668 L40.212,27.668 C40.225,27.592 40.256,27.529 40.256,27.446 C40.256,22.996 38.144,18.876 34.571,16.261 L34.571,8.168 C34.571,3.661 30.917,-0.002 26.433,-0.002 C21.943,-0.002 18.294,3.667 18.294,8.168 L18.294,16.261 C14.715,18.876 12.610,22.996 12.610,27.446 C12.610,27.522 12.641,27.592 12.654,27.668 L10.687,27.668 C8.089,27.668 5.976,29.789 5.976,32.398 L5.976,38.295 C2.669,38.771 0.114,41.602 0.114,45.049 L0.114,123.147 C0.114,126.924 3.174,129.997 6.938,129.997 L45.935,129.997 C49.697,129.997 52.758,126.924 52.758,123.147 L52.758,45.049 C52.752,41.602 50.191,38.770 46.890,38.295 L46.890,38.295 Z"/>
</svg>